<?xml version="1.0" standalone="no"?>
<!DOCTYPE svg PUBLIC "-//W3C//DTD SVG 20010904//EN"
 "http://www.w3.org/TR/2001/REC-SVG-20010904/DTD/svg10.dtd">
<svg version="1.0" xmlns="http://www.w3.org/2000/svg"
 width="720.000000pt" height="720.000000pt" viewBox="0 0 720.000000 720.000000"
 preserveAspectRatio="xMidYMid meet">
<metadata>
Created by potrace 1.16, written by Peter Selinger 2001-2019
</metadata>
<g transform="translate(0.000000,720.000000) scale(0.100000,-0.100000)"
fill="#000000" stroke="none">
<path d="M4855 5498 c-16 -4 -104 -10 -195 -13 -337 -11 -577 -57 -980 -186
-125 -40 -370 -154 -419 -194 -14 -12 -70 -48 -123 -79 -92 -54 -121 -76 -99
-76 13 0 213 91 333 151 141 71 242 111 428 169 300 94 481 127 849 155 220
17 286 30 286 54 0 19 -43 30 -80 19z"/>
<path d="M4991 5378 c22 -77 41 -265 35 -343 -10 -118 -42 -266 -83 -375 -35
-94 -56 -130 -76 -130 -6 0 -76 -44 -156 -99 -307 -207 -480 -291 -946 -456
-454 -161 -759 -332 -988 -556 -67 -65 -117 -118 -112 -119 6 0 46 29 89 66
43 36 80 63 83 60 8 -8 -6 -24 -77 -85 -79 -68 -82 -63 55 -78 39 -4 60 -9 48
-11 -56 -9 -9 -19 175 -38 197 -20 198 -20 240 -54 44 -35 61 -36 42 -1 -14
27 -10 27 170 -4 332 -58 461 -93 985 -265 373 -122 531 -167 541 -157 13 13
-6 37 -44 56 -31 16 -291 100 -327 105 -5 1 -14 4 -20 7 -5 4 -48 19 -95 34
-47 15 -89 30 -93 32 -4 3 13 18 38 34 25 16 50 40 57 54 14 30 26 31 71 5 42
-25 165 -42 210 -29 42 11 141 65 157 84 9 10 35 16 84 17 l71 1 -60 6 c-57 6
-51 7 120 33 157 23 182 25 196 12 8 -8 19 -14 24 -14 5 0 0 6 -11 14 -18 14
-18 15 6 20 14 3 72 12 129 21 72 11 113 22 134 37 l31 22 -30 9 c-23 7 -131
-6 -404 -46 l-372 -56 -43 21 c-37 18 -48 32 -88 112 -74 147 -98 244 -104
421 -3 83 -4 159 -1 170 3 17 7 15 22 -14 l19 -35 18 23 c14 17 19 40 19 88 0
47 3 64 13 61 6 -3 13 -13 15 -24 12 -79 25 -83 53 -19 13 29 22 79 26 136 6
86 7 90 32 95 14 3 33 8 41 10 13 3 15 -14 16 -109 1 -130 20 -217 68 -321 89
-193 212 -309 385 -362 57 -18 283 -36 295 -24 16 16 -5 29 -90 55 -120 37
-180 68 -244 126 -45 42 -51 50 -30 46 14 -3 61 -12 105 -21 75 -16 99 -16
240 -1 40 4 148 35 159 46 21 19 -16 39 -74 39 -46 0 -59 4 -65 18 -4 9 -10
71 -12 137 -9 195 33 343 117 419 34 30 47 36 86 36 55 0 91 -18 134 -67 98
-112 144 -341 105 -525 -48 -227 -175 -309 -309 -198 -55 46 -66 49 -66 19 0
-33 78 -105 127 -118 46 -13 79 -8 134 20 177 88 231 482 102 745 -36 74 -77
120 -137 154 -59 35 -103 38 -161 11 -143 -65 -225 -346 -166 -569 l19 -72
-22 0 c-11 0 -54 9 -94 19 -187 49 -352 214 -368 368 -8 78 7 124 57 166 32
28 53 36 117 47 42 7 133 26 202 42 69 16 135 30 148 31 16 2 22 8 22 26 0 39
-38 107 -81 145 -28 26 -34 36 -22 36 29 0 83 -38 101 -71 30 -54 52 -78 67
-72 24 9 17 45 -17 103 -42 69 -90 95 -173 94 -114 -1 -206 -54 -242 -139
l-17 -41 -40 14 c-50 17 -140 10 -199 -16 -23 -10 -59 -38 -80 -61 l-39 -43
-21 20 c-12 12 -42 29 -66 39 l-44 19 44 21 c54 26 80 60 120 160 46 115 79
271 86 403 6 123 -4 195 -37 265 -10 22 -25 57 -34 78 -19 46 -38 50 -25 5z
m552 -811 c32 -14 95 -77 116 -116 10 -18 8 -21 -26 -27 -21 -3 -98 -19 -170
-35 -150 -33 -153 -33 -153 -18 0 5 4 8 9 5 5 -3 23 24 41 61 35 76 52 98 95
124 36 23 46 23 88 6z m-290 -138 c58 -16 46 -41 -51 -103 -64 -41 -92 -106
-85 -200 6 -84 24 -136 64 -187 20 -25 29 -48 29 -72 0 -30 7 -41 43 -70 23
-20 83 -56 132 -82 84 -44 87 -47 46 -40 -58 10 -145 40 -173 59 -12 9 -32 16
-44 16 -36 0 -37 -37 -3 -105 l29 -60 -41 45 c-72 78 -148 204 -185 307 -29
84 -34 111 -35 189 0 104 5 131 37 196 46 91 141 134 237 107z m-416 -54 c28
-19 28 -26 5 -55 l-18 -23 -22 37 c-21 35 -52 49 -52 23 0 -7 9 -38 20 -70 15
-41 20 -82 20 -152 0 -92 -1 -95 -19 -83 -11 7 -18 15 -15 19 2 4 -5 9 -16 12
-11 3 -20 12 -20 21 0 28 -47 121 -79 158 l-32 37 73 50 c78 54 105 59 155 26z
m-206 -152 c27 -59 60 -177 58 -208 0 -5 -11 14 -24 43 -25 54 -50 72 -102 72
-16 0 -39 14 -64 40 l-38 39 67 41 c37 22 68 40 70 40 2 0 17 -30 33 -67z
m-35 -183 c-4 -25 -2 -40 4 -40 17 0 11 -32 -9 -54 -17 -18 -20 -37 -22 -124
-1 -58 3 -107 9 -114 25 -31 49 -187 31 -199 -13 -7 23 -102 86 -228 46 -92
75 -163 75 -184 0 -20 -117 0 -170 29 -43 24 -61 44 -105 115 -65 104 -126
227 -149 294 -13 41 -45 230 -46 271 0 7 10 14 21 17 19 5 21 11 16 44 -3 21
-8 47 -11 58 -5 16 7 28 56 60 34 22 64 41 68 43 3 1 11 -7 18 -18 11 -17 9
-32 -9 -88 -14 -44 -23 -104 -26 -177 -4 -95 -1 -123 21 -208 25 -97 70 -197
93 -204 13 -5 5 36 -32 166 -43 148 -47 189 -31 299 13 86 26 131 75 255 6 15
18 27 27 27 14 0 15 -7 10 -40z m-336 -224 c0 -118 22 -247 59 -341 36 -94
122 -238 174 -292 22 -24 39 -44 36 -47 -4 -4 -247 -56 -260 -56 -4 0 -19 19
-34 43 -127 192 -388 337 -582 325 l-63 -4 0 46 c0 62 33 115 100 161 69 47
267 149 289 149 9 0 25 -15 35 -34 34 -64 75 -56 60 11 -4 21 -8 42 -8 46 -1
4 36 23 82 41 46 19 86 36 89 40 18 17 23 -3 23 -88z m-430 -443 c77 -25 146
-63 213 -116 29 -23 37 -35 33 -51 -4 -17 11 -38 64 -95 l70 -73 52 6 c29 3
74 8 101 12 81 10 91 -4 24 -36 l-57 -28 -155 49 c-132 41 -341 96 -479 126
l-39 8 -27 92 c-15 51 -25 94 -22 98 3 3 14 5 24 5 12 0 18 7 18 21 0 19 4 20
53 14 28 -4 86 -18 127 -32z"/>
<path d="M4487 5159 c-37 -14 -46 -53 -20 -87 46 -61 133 -47 133 22 0 54 -55
86 -113 65z"/>
<path d="M3689 5030 c-65 -11 -173 -67 -230 -118 -53 -48 -125 -140 -115 -149
5 -6 21 5 131 98 68 57 177 114 200 106 15 -6 55 -64 55 -81 0 -4 -12 5 -28
22 -35 37 -69 49 -89 30 -12 -13 -8 -23 27 -75 31 -47 70 -129 70 -148 0 -14
-87 -24 -240 -29 -102 -3 -186 -5 -188 -6 -2 0 -1 -4 2 -9 12 -19 144 -33 272
-29 144 5 175 15 219 72 30 40 125 247 125 274 0 33 -125 57 -211 42z"/>
<path d="M2765 4923 c-55 -13 -333 -107 -351 -119 -29 -17 -274 -93 -325 -99
-49 -6 -262 -75 -392 -126 -236 -94 -439 -221 -582 -364 -87 -86 -179 -200
-207 -255 -7 -14 -23 -42 -35 -62 -32 -52 -13 -56 26 -5 63 83 267 291 347
356 207 166 441 277 812 385 173 50 586 183 673 217 84 32 122 62 94 73 -18 6
-29 6 -60 -1z"/>
<path d="M3870 4640 c-92 -68 -338 -201 -470 -255 -210 -86 -411 -151 -960
-310 -281 -82 -378 -131 -516 -265 -35 -34 -64 -58 -64 -52 0 5 26 46 58 91
203 284 383 439 692 595 173 88 289 129 428 152 110 18 162 43 132 64 -8 6
-26 8 -39 5 -13 -4 -70 -15 -125 -25 -142 -26 -233 -59 -403 -144 -283 -142
-463 -283 -645 -509 -101 -127 -123 -161 -175 -282 -24 -55 -53 -109 -63 -120
-11 -12 -20 -24 -20 -28 0 -16 21 -4 61 37 105 105 245 230 310 275 97 68 171
97 494 191 415 121 612 184 785 252 182 72 384 173 490 245 78 53 160 127 160
143 0 24 -42 4 -130 -60z"/>
<path d="M6566 4161 c-62 -93 -138 -160 -241 -212 -57 -30 -85 -50 -85 -61 0
-10 7 -18 15 -18 21 0 164 77 209 113 l39 31 -19 -33 c-26 -45 -111 -122 -184
-166 -40 -24 -60 -43 -60 -56 0 -25 3 -25 79 18 37 20 97 67 137 107 57 58 81
93 127 186 31 62 57 124 57 137 0 42 -27 25 -74 -46z"/>
<path d="M1263 4042 c-96 -86 -115 -155 -68 -249 27 -54 123 -153 149 -153 34
0 23 23 -37 82 -69 68 -107 130 -107 176 0 33 34 88 88 145 46 48 30 47 -25
-1z"/>
<path d="M774 3880 c-23 -9 -116 -92 -183 -164 -153 -162 -375 -524 -492 -801
-71 -168 -121 -385 -89 -385 6 0 10 6 10 14 0 8 5 27 12 43 6 15 13 37 15 47
13 68 183 422 303 631 132 228 178 291 326 444 140 146 167 181 137 180 -10 0
-27 -4 -39 -9z"/>
<path d="M6176 3564 c-4 -9 -5 -18 -4 -19 11 -10 211 -67 268 -76 64 -11 75
-10 108 6 l37 19 -72 8 c-75 8 -196 36 -272 63 -54 19 -57 19 -65 -1z"/>
<path d="M6034 3379 c-14 -16 -13 -18 8 -24 13 -4 32 -15 42 -24 11 -9 16 -10
12 -3 -6 10 0 12 26 8 18 -4 73 -11 123 -16 87 -9 91 -9 113 14 l24 23 -94 12
c-222 28 -237 28 -254 10z"/>
<path d="M595 3208 c-15 -46 -35 -180 -35 -232 0 -143 104 -192 272 -127 58
23 149 93 136 106 -4 5 -31 -2 -60 -15 -29 -12 -78 -33 -108 -46 -63 -27 -126
-31 -157 -9 -37 26 -46 75 -38 211 6 110 3 150 -10 112z"/>
<path d="M2804 2671 c11 -17 170 -104 240 -131 l69 -27 -109 -14 c-60 -8 -125
-13 -144 -11 -69 6 -186 45 -267 88 -87 47 -103 52 -103 30 0 -38 125 -108
232 -130 l63 -13 -55 -12 c-30 -6 -95 -23 -144 -37 -77 -23 -99 -25 -170 -19
-206 17 -418 79 -544 158 -53 34 -77 34 -37 1 127 -106 331 -187 520 -206 29
-3 28 -4 -25 -32 -30 -15 -80 -43 -111 -62 l-57 -34 -123 25 c-159 33 -259 63
-443 136 -82 32 -151 59 -153 59 -15 0 18 -25 87 -64 145 -84 319 -147 515
-186 l59 -12 -29 -24 c-41 -33 -23 -43 19 -10 19 14 42 26 51 26 13 0 -73 -83
-152 -145 l-25 -20 -17 25 c-31 48 -117 120 -183 155 -175 93 -393 99 -622 18
-93 -33 -206 -84 -206 -93 0 -5 50 10 111 31 61 22 152 47 203 55 123 22 306
15 397 -15 70 -22 186 -93 256 -158 l43 -38 -63 -70 c-34 -39 -74 -85 -88
-104 l-26 -33 -49 38 c-147 112 -419 184 -652 171 -161 -9 -270 -48 -360 -130
-85 -78 -145 -195 -167 -324 -8 -51 9 -60 19 -10 3 17 27 73 52 124 76 154
171 233 330 273 140 36 357 20 537 -40 108 -37 271 -126 260 -143 -4 -7 -27
-43 -51 -80 -55 -86 -102 -187 -137 -297 -21 -66 -28 -112 -32 -205 -3 -66 -2
-117 1 -113 4 3 13 32 21 65 64 282 159 482 347 728 80 105 381 370 456 402
18 7 51 30 74 51 l41 37 157 5 c111 4 162 9 173 19 21 17 14 29 -25 39 -26 6
-9 12 103 30 196 32 307 41 664 52 221 6 343 14 395 25 41 9 83 14 93 11 10
-2 130 13 265 34 136 21 299 46 362 55 127 18 220 42 220 55 0 31 -145 20
-524 -40 -436 -68 -463 -71 -781 -77 -299 -5 -300 -5 -402 21 -110 28 -238 73
-302 106 -43 21 -66 26 -57 11z"/>
<path d="M479 2565 c-4 -5 -14 -45 -24 -89 -36 -164 16 -246 156 -246 50 0
119 24 119 41 0 5 -37 9 -82 9 -65 0 -90 4 -115 20 -39 23 -42 36 -46 170 -1
58 -5 101 -8 95z"/>
<path d="M922 1459 c-120 -18 -227 -75 -321 -171 -46 -47 -108 -180 -136 -294
-29 -117 -29 -114 -10 -114 8 0 15 5 15 11 0 22 122 266 168 335 89 134 195
186 382 186 131 0 205 -18 330 -83 105 -55 131 -50 63 11 -107 95 -316 146
-491 119z"/>
<path d="M880 1087 c-3 -3 -33 -8 -66 -11 -108 -9 -191 -53 -277 -145 -27 -28
-59 -75 -73 -105 -28 -62 -43 -146 -25 -146 6 0 14 8 17 18 24 79 124 205 198
251 66 41 180 81 251 87 105 9 379 -29 557 -78 76 -20 78 -21 84 -57 22 -132
62 -228 140 -337 52 -74 140 -154 169 -154 25 0 17 16 -31 67 -55 58 -90 103
-116 146 -34 58 -126 251 -132 277 -5 24 -4 25 37 22 l42 -3 -33 30 c-18 17
-39 31 -47 31 -10 0 -15 10 -15 30 0 17 -4 30 -10 30 -5 0 -10 -12 -10 -26 0
-21 -4 -25 -17 -19 -112 43 -620 116 -643 92z"/>
<path d="M1480 749 c-19 -5 -129 -6 -245 -3 -225 7 -278 2 -362 -38 -94 -44
-156 -136 -138 -205 l7 -28 22 29 c11 16 35 48 51 70 19 25 54 52 88 70 57 29
62 30 263 37 128 4 210 11 217 18 6 6 18 11 27 11 29 0 120 31 120 40 0 11 -2
11 -50 -1z"/>
</g>
</svg>
