<svg version="1.1" xmlns="http://www.w3.org/2000/svg" viewBox="0 0 412.48094288419213 555.9483022493795" width="1237.4428286525763" height="1667.8449067481383" filter="invert(93%) hue-rotate(180deg)">
  <!-- svg-source:excalidraw -->
  
  <defs>
    <style>
      @font-face {
        font-family: "Virgil";
        src: url("https://excalidraw.com/Virgil.woff2");
      }
      @font-face {
        font-family: "Cascadia";
        src: url("https://excalidraw.com/Cascadia.woff2");
      }
    </style>
  </defs>
  <g transform="translate(50.99509762536104 208.8651199864372) rotate(317.4195092166563 102.5 42.5)"><path d="M129.1383800625094 3.049567674926003 C142.90243898185403 3.9237192154611407, 157.80409215510622 5.4639723883024764, 168.9559883882544 9.445932592261208 C180.1078846214026 13.42789279621994, 190.15034205266028 21.10351337837567, 196.04975746139866 26.941328898678396 C201.94917287013703 32.77914441898112, 204.92429747169788 38.307323255436515, 204.35248084068473 44.472825714077565 C203.78066420967158 50.638328172718616, 199.25329228954195 58.336222794442, 192.61885767531976 63.934343650524696 C185.98442306109757 69.5324645066074, 176.29239341047443 74.99996592187244, 164.54587315535156 78.06155085057374 C152.79935290022868 81.12313577927503, 136.82804304628013 81.22238638618364, 122.13973614458256 82.30385322273244 C107.45142924288498 83.38532005928124, 90.8310827598654 85.50015361810622, 76.41603174516617 84.55035186986652 C62.000980730466935 83.60055012162681, 47.13928542494074 80.80421745504766, 35.649430056387175 76.60504273329423 C24.15957468783361 72.40586801154079, 13.553993651213776 65.18324967639604, 7.476899533844787 59.3553035393459 C1.3998054164757958 53.52735740229575, -1.6487494914074432 47.38634915371844, -0.8131346478267716 41.637365910993324 C0.022480195753900034 35.88838266826821, 6.192023717580756 30.216694401363142, 12.490588595328816 24.86140408299519 C18.789153473076876 19.506113764627237, 26.005171160933017 13.713488882273635, 36.97825461866159 9.505624000785602 C47.95133807639016 5.297759119297568, 63.625769979910245 0.959606557531212, 78.32908934170024 -0.38578520593301135 C93.03240870349023 -1.7311769693972348, 111.68320535071541 0.3412828543301647, 125.19817078940156 1.433273420000262 C138.7131362280877 2.5252639856703594, 150.1330792979992 3.711038305808625, 159.41888197381715 6.1661581880875715 C168.7046846496351 8.621278070366518, 181.91879351912704 15.196566172629092, 180.91298684430936 16.16399271367394 M66.82200801958516 3.3159167549656132 C79.35493347397667 0.780463201246933, 99.13208723485528 -2.7568638245943347, 113.7406822109805 -1.8740165482639597 C128.3492771871057 -0.9911692719335848, 142.5405939779573 5.547237757130388, 154.47357787633644 8.613000412947862 C166.40656177471558 11.678763068765337, 177.44213766734705 12.211536052557886, 185.33858560125532 16.520559386640883 C193.23503353516358 20.82958272072388, 199.61620797960506 28.52867470568237, 201.85226547978598 34.46714041744585 C204.0883229799669 40.405606129209325, 202.66196318181926 46.273923910676295, 198.75493060234086 52.151353657221755 C194.84789802286247 58.028783403767214, 187.62624474345978 65.04820805568517, 178.41007000291557 69.73171889671862 C169.19389526237137 74.41522973775207, 156.90160070626558 77.71145191777492, 143.45788215907567 80.25241870342248 C130.01416361188575 82.79338548907003, 112.37160647442337 84.76726307484955, 97.74775871977616 84.97751961060396 C83.12391096512894 85.18777614635837, 68.92716536001315 84.56943285494589, 55.71479563119235 81.51395791794891 C42.502425902371556 78.45848298095194, 27.599809824021918 72.25539278569372, 18.47354034685138 66.64466998862208 C9.347270869680843 61.03394719155046, 3.632514166769122 53.36486813027933, 0.9571787681691291 47.84962113551916 C-1.718156630430864 42.33437414075898, -1.1793171347171594 39.163196344073384, 2.4215279552514204 33.55318802006104 C6.02237304522 27.943179696048702, 12.403432096902979 18.746218220667824, 22.562249307980608 14.189571191445115 C32.72106651905824 9.632924162222405, 56.158886605410665 8.606869161886333, 63.374431221717195 6.213305844724786 C70.58997583802372 3.8197425275632386, 65.14220686579974 0.7244782205552435, 65.85551700581979 -0.17180871152417154 C66.56882714583985 -1.0680956436035864, 67.19123527149455 0.007370995149554971, 67.65429206183754 0.8355842522482959" stroke="none" stroke-width="0" fill="#000"></path><path d="M78.399414093015 1.638048969168402 C91.7679859913901 0.08844789092150585, 109.39438443673181 1.0283513324973466, 123.73400278100232 2.444919485252136 C138.07362112527284 3.861487638006925, 152.45652119807627 6.99165420105664, 164.43712415863803 10.137457885697138 C176.41772711919978 13.283261570337636, 189.10778924946578 16.10816400784837, 195.61762054437287 21.31974159309512 C202.12745183927996 26.53131917834187, 203.7135476302141 35.234031818056636, 203.49611192808064 41.406923397177636 C203.27867622594718 47.579814976298636, 200.134818436756 52.83398116740936, 194.31300633157213 58.35709106782113 C188.49119422638825 63.8802009682329, 179.53586837623033 70.16373476888465, 168.56523929697744 74.54558279964826 C157.59461021772455 78.92743083041186, 142.77441176390408 83.17279862972735, 128.48923185605474 84.64817925240276 C114.20405194820539 86.12355987507816, 97.3917375732336 84.98848745012951, 82.85415984988134 83.39786653570067 C68.31658212652908 81.80724562127183, 52.69603778561817 78.19202295358103, 41.26376551594124 75.10445376582972 C29.83149324626431 72.0168845780784, 21.21041465027486 70.13797668578707, 14.260526231819782 64.87245140919278 C7.310637813364703 59.60692613259849, 0.8157782832800275 49.958062297803096, -0.4355649947892317 43.511302106264004 C-1.686908272858491 37.06454191472491, 1.2466901255459746 31.285006760979957, 6.7524665634042265 26.19189025995821 C12.258243001262478 21.098773758936463, 21.862896415784874 16.786672013646523, 32.59909363236028 12.952603100133523 C43.335290848935685 9.11853418662052, 57.46565664972775 5.3389048879389485, 71.16964986285666 3.187476778880196 C84.87364307598557 1.0360486698214437, 102.04661317546007 -0.1288308917196197, 114.82305291113373 0.04403444578100846 C127.59949264680739 0.21689978328163662, 148.43797647683175 3.7413837950184288, 147.8282882768986 4.224668803883965 M43.25897547765494 8.869397399599556 C54.16705764620152 5.367003519862733, 70.39372223988688 2.052905089194425, 84.44671783108696 1.1673649307977243 C98.49971342228703 0.28182477240102344, 113.62579510948014 2.456238850279509, 127.57694902485541 3.556156449219351 C141.5281029402307 4.656074048159193, 156.97151931308312 4.444956814449601, 168.1536413233386 7.766870524436776 C179.3357633335941 11.088784234423951, 188.21205081467656 17.713115278596295, 194.66968108638838 23.487638709142402 C201.1273113581002 29.26216213968851, 206.89433206026436 36.405843547374815, 206.8994229536095 42.41401110771343 C206.90451384695464 48.42217866805204, 201.3293738213683 54.34637310378051, 194.70022644645928 59.53664407117408 C188.07107907155026 64.72691503856765, 178.9448798696089 69.43070551181651, 167.1245387041554 73.55563691207485 C155.3041975387019 77.68056831233318, 138.88108740595086 83.05845928629394, 123.7781794537383 84.28623247272407 C108.67527150152574 85.5140056591542, 90.86588368700825 82.46139949114965, 76.50709099088004 80.92227603065561 C62.14829829475183 79.38315257016157, 48.54543338792492 78.81105358828492, 37.62542327696903 75.0514917097598 C26.705413166013138 71.29192983123468, 17.55244935457884 64.02978273488917, 10.987030325144701 58.36490475950488 C4.421611295710562 52.700026784120595, -1.3547346739356503 46.28735289292262, -1.7670908996358037 41.0622238574541 C-2.179447125335957 35.83709482198558, 2.237098881664049 32.22621748492099, 8.512892970943781 27.014130546693753 C14.788687060223513 21.802043608466523, 30.52372911679186 12.87271590937489, 35.88767363604259 9.789702228090711 C41.25161815529332 6.706688546806532, 39.08626483285774 8.865326329741935, 40.69656008644817 8.516048458988678 C42.30685534003861 8.166770588235421, 44.23348495091558 7.009967446139206, 45.54944515758521 7.694035003571166" stroke="#000000" stroke-width="2" fill="none"></path></g><g><g transform="translate(-28.61863847068969 387.4829939030799) rotate(324.1541626669959 196.3478529882297 -52.11291742950914)" fill-rule="evenodd"><path d="M59.37225100401928 -123.29020472995299 C59.37225100401928 -123.29020472995299, 59.37225100401928 -123.29020472995299, 59.37225100401928 -123.29020472995299 M59.37225100401928 -123.29020472995299 C59.37225100401928 -123.29020472995299, 59.37225100401928 -123.29020472995299, 59.37225100401928 -123.29020472995299 M50.68181573475948 -94.84924289940685 C64.42211707983597 -116.47544201860794, 77.61103555532054 -132.18665034887883, 102.20229642557685 -153.37345897220513 M47.65201574999145 -98.32430763712912 C60.96978207879261 -111.92256545069533, 71.45006490223588 -124.87653514586805, 101.09207755605463 -156.74850967899403 M36.559292792215615 -73.33226018242955 C60.95377975664589 -97.6727254281715, 79.30021390421729 -120.73081017543535, 117.66443124299506 -162.04566436526176 M37.179546964227825 -73.04312298104584 C55.5539589980716 -93.85410414465159, 72.79376730935199 -116.11902024426118, 112.09783456919352 -163.23370543946322 M30.831746710813203 -50.027507249821745 C62.40578076696082 -93.98665107417173, 101.47155110887783 -138.19699435102447, 128.17043126427072 -168.30061435670706 M26.846163239678898 -50.127242373858415 C60.54257924144163 -88.05859341750718, 96.56485055796344 -124.86342621650951, 126.72866215423184 -167.9373250433162 M21.184198645768213 -25.13850672810261 C68.44902946660153 -80.53149627834799, 109.30992599279023 -135.08959626850177, 145.0414634815913 -168.08642906372853 M18.361971180779385 -24.880469203804775 C45.477681940642526 -57.51818225954417, 75.17514401771174 -88.92736173248817, 142.36010962757584 -171.71831624445923 M6.064450567795374 2.8401028204784944 C62.905774463148006 -63.43724241229414, 127.03889193014454 -137.04401567832772, 152.31518459232169 -174.17000286251547 M3.0951523739071214 4.002960040655172 C47.509064269458264 -50.05704463518854, 95.52823906899717 -106.47458118728744, 154.697579878488 -173.88262912707594 M7.79085810121024 12.160363758992277 C68.2430404044212 -55.56668624959459, 125.04551179328777 -125.51232010265684, 169.41577409564567 -174.4754649759315 M5.227935187615061 13.133123206084157 C52.983932996625725 -42.10429749630941, 100.61059406728182 -98.36598560878592, 165.60872923892646 -173.63028926898926 M5.906846006983016 21.506547167142053 C69.23302763143786 -56.62290277492089, 137.50694235846274 -130.40103826461421, 177.25162102022153 -176.20367703727626 M7.519558129331751 21.788617862916517 C66.68605121575601 -46.51170181827636, 126.49463111238 -116.91337677336422, 180.25008824517218 -175.2236150447217 M8.73683179430027 30.391822227808593 C67.9727907965578 -33.59330452159843, 116.58103876893472 -93.87012652361926, 190.47533384398076 -175.93772241902263 M9.102698236387646 31.251216227469243 C64.43113308730103 -33.30260327168971, 118.77699157074355 -98.04337618494586, 189.94339561111445 -177.0209131093718 M13.230417863305274 40.6584502189158 C57.16068387351365 -11.978228473487357, 98.97929137693166 -58.26175567324274, 200.7797461230997 -177.14327059142428 M13.17755485080432 40.680885785452915 C68.73056332656614 -26.094342939811323, 123.81582775916773 -87.6419993447762, 200.93258856875443 -176.77814919207222 M15.725266327622322 50.62421153649208 C80.73793099455737 -30.582095206634314, 147.62315398860184 -111.4212561619783, 211.81135022292156 -176.61043277367932 M15.267629724630506 49.79620451855853 C74.47969309729206 -15.753022949307633, 130.84667577355984 -81.50689616832148, 212.954589026084 -176.10342931860723 M19.216007412246825 59.18514767754707 C61.18471875807207 9.867462417628373, 108.6081692877348 -45.08037593890403, 220.56478868567964 -176.8211076803274 M15.861067456799239 60.16050866716498 C97.51140197314457 -26.887001947707162, 173.84885242933416 -115.18497540815419, 223.1843359564618 -177.9967501549691 M23.136372097228385 66.85677352999512 C104.36857156457711 -26.52509929350958, 181.03932381445392 -113.07592381051852, 232.90890462449278 -180.22099871472614 M21.58717902646937 66.91143092166435 C70.91060582680073 7.889235980346992, 123.99509410346877 -50.838897783058364, 234.47074569082207 -178.37338193378565 M24.146388478051808 75.5987469652641 C105.32817124997153 -21.070925441501725, 192.60286767399705 -118.19670059991265, 244.77652607549425 -177.48620652560075 M24.702969381681267 73.66709806290075 C92.13634925232199 1.4928035124953738, 158.4043594315742 -74.30641684567162, 245.0959430784205 -177.6029222717334 M29.38012504076549 83.61672244376248 C106.84200024993874 -7.223079069363352, 183.72417119388044 -98.81722328550254, 254.7942118454404 -178.21197253821052 M31.029085635028597 80.40860811818042 C116.19920316309903 -12.884056903285211, 200.87737703926686 -112.04578738588663, 256.95068021384003 -179.7253775187122 M38.10957277720024 86.63749985021857 C104.18012372581443 6.786047812404004, 169.89444678288154 -67.83320425106795, 267.94866236881717 -177.2008933211692 M34.92186663787252 87.83779556146013 C118.42145115420757 -10.134522578305432, 203.33221007435327 -109.40464423218522, 266.34966274993803 -179.31407063492145 M48.40314839627831 86.72322200817351 C75.22099397959926 55.8640864250864, 108.62064908606085 22.255290363190994, 149.22786498158428 -35.09865555303914 M45.6127605404356 87.91103262474124 C66.7902303760972 60.39096590528449, 94.3225221541667 30.549181266371, 151.42335958681258 -36.378566577535096 M170.80145556907172 -55.09044435665649 C199.95762738619658 -83.85028385795749, 221.10958322891622 -115.95338147637514, 274.2058738050794 -177.2334509881908 M175.02117016407664 -57.24722887434703 C212.20556595632922 -104.79568466052197, 250.1888005014038 -145.6599712849217, 278.75016829462703 -179.59414603549484 M56.32851440827494 89.58450001446835 C94.66080889460869 45.35683388524906, 129.44308477089191 12.469942276634086, 147.29546359779533 -16.785085949179134 M56.520518267481975 89.80278779721192 C94.12705877708643 42.404906657836285, 131.68109210539635 2.693517398239365, 149.6147950779855 -20.33520569006761 M190.43331664813527 -64.42666579258146 C221.70003408001125 -102.77450182502136, 252.98574567435156 -137.06561806124017, 286.32489697460903 -176.96742372882164 M190.63371015911767 -67.23149716143014 C212.40252074294665 -91.10907780169632, 233.71282512397843 -116.24251678737541, 290.26121300098373 -179.05651459578968 M77.33769411483736 76.65545263328524 C88.39711960330673 60.63620568174895, 102.30647920611918 40.229952073880405, 146.04319316347406 -2.3500626679827263 M75.82641311438711 77.61027989909918 C98.54972406120088 47.21346213700791, 126.49679720979611 18.276137710327255, 140.71157361579404 -0.9572487302441886 M204.57772186868547 -70.46404564072445 C226.34494858230642 -98.45990603766839, 252.75984924701214 -124.34061996549268, 298.3140142073088 -180.77097116197996 M203.2359595178133 -70.67448459071174 C241.4294764222797 -112.32057557325273, 280.5755314839709 -153.64337321598816, 299.14759316455354 -179.08112600046746 M97.76679427952251 62.4262514084608 C100.46217165248245 52.75026097437975, 114.10472823437831 49.02192890532567, 135.27514655813943 28.333997513495618 M99.62192293845794 63.34174688048965 C106.86894896554324 54.439641365007674, 116.75849564410274 42.39902403939071, 131.2575341735072 26.1665789311307 M211.91300022620334 -66.34383899903105 C240.9085850243103 -96.4239784275607, 269.1993059167098 -135.02362678287926, 314.0710683826977 -177.11026006472017 M212.8709933293946 -71.05875485388742 C240.36121448452616 -101.76504558788444, 269.51589183814906 -132.3232896871039, 311.1562727586055 -181.2098306203326 M221.452807275378 -68.79925537158907 C258.09615210764423 -106.8183804982835, 292.02953373281184 -140.38154550587214, 321.3293927353392 -181.01692079152616 M226.21816120649208 -68.39964656395078 C245.94761408607098 -93.85933362282066, 263.4747063389317 -113.56719237955639, 320.0492417984227 -183.182796686475 M236.2153657058381 -73.20284369619603 C263.7422930745407 -98.25342987990257, 286.3298988440448 -129.82974756504257, 335.93572834097256 -179.69229036462315 M236.39852167276075 -72.08116437340195 C271.7223002854042 -111.62918099335441, 304.691044058735 -153.34715097437478, 333.19479171708633 -179.444061976716 M252.54956820179015 -71.39564867959388 C285.0277648962473 -107.36365865827653, 315.17756990997657 -147.5844221417958, 345.7811727497664 -180.72672056164404 M248.96183411162585 -70.90791500070162 C272.7519201444084 -98.95822021317943, 294.8143929130577 -125.32673277781117, 342.8391836389837 -181.48308715540728 M255.97170328441206 -75.99456251919291 C279.9898036735179 -98.18401206007499, 305.3066198766548 -127.51797590516432, 356.20680614592715 -186.07844358933085 M259.10767561848405 -75.47402452997885 C290.3471608269262 -110.56552294206475, 324.1557514965917 -148.19309903649173, 354.8485831975399 -180.85838519100957 M272.4162191958915 -77.24848658218059 C293.6382918644043 -95.01099512001898, 315.6002450568877 -123.89551308726624, 363.1589864926518 -183.72211998464826 M271.12370488474176 -76.20680009013984 C306.9412423951368 -116.88370608933998, 345.35801446988216 -158.98123958777816, 364.0518556801708 -180.03356925720635 M282.76678292841575 -71.66804098574447 C313.9817342173038 -113.50386389939078, 352.2373060374067 -156.83340622526893, 379.0007037060709 -184.05209609612047 M283.10422122680507 -75.18393943509089 C315.4907115574545 -108.76024968855492, 346.31055799163676 -144.55354958538834, 376.2394202022256 -181.96811021424054 M293.38733925316296 -78.65527417729477 C329.96124742005156 -117.43077254920038, 364.3570174139837 -154.4349122970084, 389.2653990754384 -184.6632124793755 M293.6687236150708 -75.95074052396099 C325.96578405462884 -109.57008356079788, 355.72874971692244 -143.16093928718752, 387.104569127177 -182.0856450044589 M386.76560041352076 -183.78471584811825 C388.07812176965064 -184.0644254082584, 390.80627509050663 -184.9739524902941, 392.8869400903103 -188.65786340803925 M388.17515539728936 -183.15609435344132 C389.02794848824317 -184.85615246064896, 389.9141405291129 -187.14750579341288, 392.10784107153165 -189.74659887234768 M303.0746223794174 -74.29297383213276 C329.45148530414804 -105.96205733567706, 357.48131193337036 -140.34949198569603, 382.7467919821098 -165.98593796901218 M305.55770540217577 -77.39238226311141 C321.75968550029233 -97.40257468777328, 338.2712494623039 -117.13718752675646, 385.97720155773607 -166.8853129141014 M319.1514813469869 -76.09533535009909 C336.1191147258633 -95.29966829952687, 350.0142654029475 -119.23644470449656, 385.5603230695139 -155.6665413091814 M317.31553474051475 -79.07397636650789 C333.3182488817842 -95.53471865913568, 347.10504029609154 -116.39845604837488, 385.25083013688135 -155.19989241575058 M328.0720633755293 -83.92191862480186 C346.0886063921022 -97.70243124594705, 360.727735482726 -116.34161132252561, 391.696969042531 -151.54908911188838 M329.45251614068115 -80.08649197944843 C344.752935105757 -100.44180624698842, 360.92866381630785 -121.27556830745291, 389.81580289546287 -149.32017423821387 M341.1661118412701 -82.20981795253746 C354.46133455841994 -94.07979785599134, 366.2895726443539 -106.87078398712582, 386.062792708491 -136.37433904097912 M341.5910565531192 -81.70363228494816 C354.3146411419275 -97.56239712052101, 369.72329768950505 -115.66946054110369, 385.21264309002925 -133.94657180705605 M25.77013914337946 78.5768152358796 C25.77013914337946 78.5768152358796, 25.77013914337946 78.5768152358796, 25.77013914337946 78.5768152358796 M25.77013914337946 78.5768152358796 C25.77013914337946 78.5768152358796, 25.77013914337946 78.5768152358796, 25.77013914337946 78.5768152358796 M44.79535434041574 82.81740105566935 C32.17430302778759 76.09336581780535, 31.387208637871215 71.61451017407374, 18.219459197383447 59.266116303034345 M45.00132434275403 81.1953839272763 C35.620108434924845 76.34341058595078, 27.516717702589172 72.27850106789442, 17.251863037135525 60.4318649755942 M53.30203770033629 78.30855650550143 C44.02751594642575 75.718223612056, 37.368218218490156 70.66319335682786, 20.565430484613607 54.46551415106931 M52.429477569904044 78.95850041045264 C40.96060895175883 69.34265063033857, 30.17626515575571 58.524309949955914, 17.755401527410577 51.55772100357988 M58.50376047295398 81.97729016389181 C48.16590622526604 63.88571592678619, 31.341174201973203 49.97870523360561, 12.727995392223471 41.75644039206053 M63.125635831699434 76.52273216578592 C50.447619676059304 68.38955950652807, 39.06560103130154 55.82617504651117, 15.665283927982324 39.6113500076517 M69.47559590045633 76.68407566365303 C47.086700482601294 52.83849113769338, 30.311464587294353 35.78066102522196, 9.25200129485103 26.23554922771609 M71.18214531954648 73.53108456436993 C58.19763952506138 62.892190534629755, 43.416557650147226 48.847582342778665, 11.32292743770751 23.911391052798987 M80.74183597503081 72.52766788759756 C59.23028419353612 48.0032361552431, 36.7376326882702 32.270596482159384, 9.195289774238235 12.834008732867467 M77.2479928498514 69.22617235229838 C59.24332229443448 49.547212229045435, 37.21099495623725 32.045729535009656, 10.377665337546832 11.284825202134478 M86.90570101908772 67.62616199752843 C63.97276918445224 52.58434176603252, 36.257766804359946 31.909241209204772, 0.5696307423498213 -4.372672738663343 M83.34601544424324 66.04377867965555 C63.26546094504721 48.555509144587944, 45.911041196002415 32.402059200412054, 2.415181113683778 -5.810698077238587 M90.26021094459179 58.273816347267605 C68.93613479645943 46.77958590245744, 49.95470008858444 24.848156557070965, 8.02694698426932 -9.510879177187244 M90.67127158890548 60.582178013544656 C71.3398550176186 41.00875682351026, 47.34501021555928 24.419664974692182, 4.83123300042063 -13.82059353734986 M102.43673315417605 58.34634762760862 C75.11761520663956 40.15060230661955, 50.53414034562961 13.08755398086548, 10.810059689956514 -17.058070989796807 M101.42708913568991 57.81993128304049 C77.6489457107125 41.826902665428186, 56.198802787922375 21.032935442403364, 10.969899511935918 -21.430024222010662 M108.99701547958244 50.833517663382956 C86.84369361403961 32.737044404825994, 58.434419251108764 13.281603785110867, 12.023685441153358 -27.379955101660553 M105.60459824055721 51.46097267625577 C80.82328146765482 26.87077428116351, 50.46308294585598 3.3413135192364223, 11.582076429190348 -28.288571568108264 M111.8364436629985 47.90048758740312 C80.2784913604302 25.8583869368175, 49.75683519545693 -1.6423085270578852, 12.735888310270123 -33.88578010097547 M111.57348884491367 46.808463814284266 C85.16121618947525 23.502689624853282, 56.40807610904292 -2.0100857755067665, 15.114428898812942 -35.3530305505584 M114.30433177683449 38.35675881147211 C95.94632637846703 26.158324746363206, 70.97326186458666 1.00319066364046, 23.58895111971708 -40.87151332593855 M117.3898010953883 41.04623472221022 C93.18229839929928 23.10616374553802, 70.72010336311129 0.5553954965838201, 19.50776269243272 -43.918086769276826 M124.06008390283235 33.15693691042141 C91.47307927921153 5.225904170292825, 53.53631102841884 -21.92614691715376, 24.41024670123619 -53.36301795171831 M121.83958702294179 35.552047713146365 C93.49053701017208 9.843042625652036, 65.26809944978442 -11.173149315079677, 21.995395466010393 -52.646993536150795 M127.47645161340235 25.46208579605404 C105.16727216202625 14.612509947309597, 86.99591750983632 -7.877119143187258, 23.37020495746049 -56.39863978752123 M125.02966802420316 28.771451562176978 C94.74576712161144 1.2677559038211754, 66.41492663825014 -23.85939055073349, 26.44862382139775 -58.04165867210554 M133.25040523095478 20.796550630172995 C103.96890752277535 3.941439680864221, 88.10895729071814 -16.566327113106052, 28.819636220131947 -64.15267950851583 M132.18600612080147 21.187104419386294 C91.60138388660394 -13.829766581196747, 52.060590619821795 -47.11018739216253, 29.401546664555504 -66.75361673902833 M132.01400508723157 15.204780737609752 C97.38173176846689 -20.90114917812569, 53.3493477243164 -51.66538122998712, 36.447698311660815 -75.21797945289912 M131.45207521869736 10.288096722887047 C98.63352261252314 -15.247306008211746, 68.93901464861652 -42.81564515753617, 31.39653226711266 -76.05411583683492 M132.24707816508857 0.6248018381483433 C106.32494135100555 -26.591143994380957, 73.64644854414333 -46.07713922612382, 36.89276780445739 -78.44910070886806 M133.98903774996546 2.7559234307445166 C112.30184629312436 -14.299849803150984, 86.93931664051729 -36.18387252461294, 34.78258952569827 -82.86479469044104 M138.60512229626772 -5.5473742433797355 C108.21653672491084 -26.855081041886613, 82.76137438924297 -52.30763443744113, 44.10802086048638 -86.14944117260066 M138.49114887056646 -3.1586062689285512 C116.37835125575118 -25.588520218759786, 96.2502502987594 -40.724208380774634, 40.26844880149578 -90.13230070774344 M140.58669238340207 -10.428218316180974 C108.22117327528073 -35.07715620605496, 82.89998519175829 -64.17984055365724, 43.500561971935284 -95.97805846128445 M140.04064268235214 -12.793337697057396 C116.69091340874218 -32.26783133536651, 96.03280174029237 -50.09900743715365, 45.24919066091145 -95.92261289264839 M140.37072375823357 -22.770156055423904 C105.91962521621417 -52.30973546502874, 66.6226805735477 -83.230316137809, 44.29700480076886 -108.13678797109742 M144.13255559128322 -19.3857429155293 C118.69904456129113 -40.081799264112846, 94.03698597078869 -61.601221720539684, 48.35932671512879 -103.79565990305264 M150.2386279838408 -30.27597771233397 C116.27816591998362 -58.02182253441311, 86.86462968061636 -81.24986017123754, 53.192020079842884 -109.96494773225552 M148.284322109657 -26.574830437288455 C120.68264554838251 -54.58987113452234, 90.76145640906736 -76.44496477360883, 53.30884752122231 -110.58752490589089 M151.88335873152016 -36.65866452006073 C127.73830435591833 -60.470677358351026, 96.81942459474249 -80.20720048301817, 57.43094939089933 -121.71886966992733 M151.5323407329887 -36.648471632203176 C112.10411599482416 -66.75856295558822, 75.66422381969886 -101.58016375293893, 56.15333636015275 -117.37747683805046 M152.09563632368196 -44.987621316801146 C131.63495249398815 -65.51933014584573, 103.22078018634672 -84.50507990055249, 63.967772226125696 -123.85448640130028 M154.3056984829073 -43.077133350189165 C131.3108806415918 -62.403053927570284, 113.41641946801433 -81.53066264429542, 58.63943629832635 -123.95805720343753 M156.8653998327365 -48.84397169075224 C123.23473296593042 -80.32122901781455, 95.54188672443313 -104.86493831728, 64.58539640793228 -129.55839026457141 M158.7151230060419 -48.8566730661622 C140.26726527522285 -65.8413220569393, 122.26403306530759 -81.5602142243857, 65.51264060737216 -130.55363910196792 M168.50209750087117 -56.85161700910149 C144.35962237661724 -71.17521450016773, 124.01012344081717 -88.03116442149845, 67.50652934828375 -134.59101040591872 M165.8607729937986 -56.22689790902851 C137.5393070273041 -78.66433179164312, 111.7423428325828 -101.23258384909103, 70.3156640234736 -134.85110431653834 M172.26439632027353 -63.8961773890364 C142.5652790569348 -84.15650990584012, 113.38508071194386 -114.93376167815626, 74.28751636959043 -138.5373766635392 M168.64944776258375 -61.07800563269435 C143.0850383773848 -86.69601260469915, 114.9971896914441 -112.28927503483793, 76.46978106825975 -142.43810719706454 M174.23518203313114 -66.99999169774449 C150.89752351082484 -94.56942416357292, 115.14253780778914 -117.11499622587354, 85.91979280359426 -143.96241471260134 M177.85708725380363 -66.01308461606598 C153.86500066401527 -82.40825568094223, 132.08144814064195 -99.5075335720463, 81.56377814769128 -149.1458698054338 M187.9512687118542 -68.54105852342272 C163.7670949498101 -85.61052315389963, 141.97129682354088 -103.51905183894094, 90.74256063315107 -151.03747383332112 M186.9459816140872 -66.75455483405912 C156.8857096556452 -93.426538843934, 126.83689968477081 -118.47075059014612, 89.45413019384279 -152.86320968358078 M198.01427001840742 -70.09621326224914 C174.08103498296924 -94.1162503726854, 152.9202368362783 -108.31744065691751, 98.77069269000279 -159.97591720086712 M195.86314245461793 -71.17484494457057 C162.812219954829 -98.13264835173476, 133.9723975529113 -124.09279188740439, 94.78040486267494 -159.15963014339286 M204.22972794497835 -74.34795103141121 C178.04122073081192 -95.6803110734216, 155.3202383078624 -118.70980951915146, 104.85269971633693 -158.31570868242676 M205.3669315918021 -72.39071520150654 C174.2230143950419 -102.27295351269248, 145.82208315136563 -126.33167603751752, 102.31072959559401 -161.7554070637762 M219.48211281397727 -76.95942666910592 C178.48735169484817 -110.62540819843679, 136.95061658187745 -145.5655994198421, 115.30043994500932 -164.13835380821604 M215.08956104726877 -73.82575745478276 C194.16207203052966 -95.38346702465506, 170.6283674341757 -110.5999316944184, 111.75900119967457 -164.92802986166555 M227.83627537692328 -73.72974987949235 C188.2023943516898 -112.81689565702013, 144.02899862672274 -149.5641288616235, 122.9717328775391 -167.84843103239402 M227.82604514675577 -75.55319029527706 C195.19152896903714 -104.91622749021342, 160.6131675511148 -134.73130907502966, 121.05499962565452 -166.4792327529387 M237.20483303644954 -78.56445397177691 C204.28997721339536 -108.05372660613759, 164.38626777296236 -138.52659399954968, 131.93774550611383 -170.14406047214817 M238.389086742115 -77.45382779391463 C200.22660268816938 -111.45343711819488, 163.92126024309408 -140.7341420347054, 129.19927418994016 -170.89296349150192 M251.1854932045207 -76.59896809213764 C218.28666329662025 -105.91608534128925, 186.3883286779885 -129.3571090747966, 137.09386357292098 -175.86008099466594 M247.63390056952989 -75.52705173359222 C212.01317159314763 -110.41847586995385, 173.3014431927 -141.95333745100754, 140.0615148339377 -172.36606045626135 M261.9548916233243 -77.44938110776206 C217.117361677333 -113.2277585149086, 182.70608201441436 -144.78417864338883, 149.27998198992526 -174.49910924612544 M259.5395515704067 -76.32907549321612 C216.9885064055007 -116.27654730625517, 176.07207910085575 -152.31702708339247, 145.68834254383063 -178.5268116801139 M267.3888827850478 -79.74350063583766 C229.7865753399817 -118.80354786217362, 184.03857469555817 -157.40672570189088, 157.6837623202053 -176.17018547775209 M272.5167453111517 -80.69150307669257 C238.9970941938515 -107.69033840798099, 207.4620683974252 -133.30803768692442, 156.8940668319163 -179.5611006760037 M284.1828303516559 -79.65191207254243 C250.2176202778397 -107.77077443015175, 217.1270388379723 -143.84441223816924, 170.65911781528024 -183.33648189370493 M280.7156184029482 -81.4398881419183 C250.26058169589865 -105.81477034279351, 220.516471613991 -133.94250131705584, 166.26667077393262 -179.14761478480855 M296.7454454757818 -80.13874247708284 C259.7655174755757 -106.37340488945445, 231.84000146081542 -135.4757851244816, 181.9030187975604 -183.47365333218087 M293.1070768226483 -79.83199788481855 C258.28649628829714 -112.54723685212605, 218.21385055929636 -143.21079674867224, 178.53211639150865 -180.30369585644414 M306.5455293193901 -78.77301474563691 C283.95268411859126 -105.2032107307746, 254.09457910007495 -126.39659456415151, 191.04752559878767 -181.5372504683485 M303.01703843143525 -82.55666721329007 C276.3617772801105 -103.65632918657289, 249.19832557535761 -127.7768014983921, 189.33387759060503 -181.04025345279777 M314.5152305351138 -83.66729343741119 C279.72999580028846 -115.67939562067329, 245.03607293515 -147.51317872546036, 199.57246520181795 -178.58924758242384 M316.7171904561609 -80.85994457325816 C282.5239892443981 -108.69987258269204, 251.20806015042194 -137.82564703929123, 201.3331168032964 -182.17579261580423 M327.37794946402664 -79.91327506454564 C280.4825530349441 -121.21206941356638, 237.5884878030978 -158.12729848752303, 213.13333543839312 -182.23363284957532 M327.94039368711765 -82.16818223858155 C304.51342864354166 -104.15900053377355, 278.44042944152557 -125.52431530456303, 212.72408918554342 -180.9595041573507 M338.8439818389844 -87.61590265725624 C306.1238876507969 -111.70190255845117, 270.42112469049175 -144.70392918788684, 227.96456247047797 -186.55505416598095 M337.26382618138007 -83.30965087619495 C313.331171201538 -108.60451932113084, 287.384347905524 -128.00255704102375, 223.8249000985296 -184.19741048533393 M348.9195846615063 -90.95319216970208 C318.10666380181556 -107.45851451703687, 295.5420381917685 -133.66880134659925, 234.2639199507055 -182.6817010908473 M347.6055491396861 -88.7618659519762 C307.2921312420311 -123.96714630392322, 265.6050604351907 -158.18267980157242, 238.64942426910673 -182.00274754567926 M358.8384911644481 -90.17852413209908 C322.3157499113185 -122.86213857207846, 284.2078304284255 -148.10764041063823, 248.78456196081765 -187.25271804934283 M353.3435218691103 -89.84137938286 C317.041974163761 -127.09777786947896, 278.3922432903885 -160.22897802591234, 249.68683872823544 -185.45087802527388 M359.880395849329 -93.36835199860627 C338.38442683967435 -120.82369294400704, 309.98999624588083 -142.45625049781972, 258.74769965344757 -185.044732100674 M361.32158682039056 -97.63898788472409 C321.5431688979432 -131.49013190456418, 284.28277664141655 -165.4774641466513, 260.00179945276767 -184.393319120043 M369.05717902922754 -103.76843477044909 C340.6693732491071 -125.04724663898163, 312.3964488214579 -150.86819864324386, 269.679924610337 -182.09532517000935 M368.72319413082425 -101.55346559551268 C342.6422922771783 -123.1158167997866, 319.7901054431866 -144.0642719488666, 271.25926472366393 -185.76871476687393 M375.6672631254403 -105.50972243077715 C350.810546168748 -129.22574622760717, 322.69272260150535 -154.81685784003557, 281.3258854841193 -188.32956181655535 M373.8132579209266 -108.19494951009412 C355.44563448262033 -120.98762557648669, 338.2002475427916 -139.97357188690353, 281.82467176777624 -183.41686341169188 M378.4912563708229 -113.64247050980637 C345.9873803007422 -139.57134000422016, 320.831630648785 -161.7203603725772, 296.24032093675896 -182.02740243649004 M375.3212999977721 -114.6065540454031 C346.50264656591594 -137.83475847117043, 315.63998943273026 -166.8714966607854, 295.54346969628796 -183.73363121239362 M382.6104378471174 -125.88394843270524 C355.1570002040683 -149.46253381306033, 326.9243756278788 -173.48411502837428, 307.9271883802207 -183.7305261759914 M381.44743489232144 -121.19957938832684 C356.7863504917173 -138.25253549914416, 336.6116093045609 -155.9568212205456, 308.06774824538246 -186.7652749518759 M384.8288532871796 -127.93284922968982 C364.05592125190947 -152.26485669397496, 336.9526099320357 -164.7825690731351, 316.9787927171377 -182.14915384426592 M381.4719656616492 -128.25542120580016 C363.4901961751491 -146.49716544912496, 342.95268842664314 -165.0591995140979, 319.18286651691176 -185.30276495106398 M386.4918001123059 -141.21699788390958 C365.7176882799559 -158.94857009267895, 350.3978010984065 -172.23336117519642, 327.66781927925183 -182.62946111648216 M386.7613689262706 -140.86077899269128 C368.4991343662041 -151.9167725356692, 354.0342745057434 -167.7315927061363, 331.5869859168364 -188.53669827184513 M390.68147113557484 -144.92746589659004 C378.36819155087363 -155.03709328353875, 368.593824483416 -169.0396544429471, 343.86001046919614 -185.78010630184656 M386.1514385734829 -146.12927063694445 C375.2549918588201 -158.66122133962807, 367.22937296177054 -166.678024755036, 342.9912467970082 -185.87132648514455 M389.52602043872855 -157.0783976928996 C378.24722859174165 -166.82625169303859, 373.77440055035265 -170.13734244703534, 356.8514891187126 -188.5957025755276 M389.4438516342469 -155.44875882544687 C381.26056790295786 -165.3098642201054, 370.6729999627665 -172.03452189510014, 352.14459181338793 -187.2355279028495 M388.1122400139543 -169.13353839002593 C386.52261289200146 -175.4510854734505, 381.0759694512761 -175.40682024546817, 363.77201596998873 -188.39546380471285 M389.50634492496874 -166.2953788121049 C379.35926207043804 -174.71885556565482, 369.0498108460925 -186.51340221782155, 365.4245234073818 -188.20895340386625 M392.66792633181234 -179.12945757976672 C389.0519625758421 -181.49431868493463, 382.3008494458524 -185.83768791354152, 376.61238474799603 -187.5055797936284 M390.7438488512466 -176.67352196940158 C384.62807424025897 -183.06289411126434, 378.0627280649897 -188.15350213963103, 376.0800181716709 -189.77258558486415 M390.0503650622306 -187.68975798575056 C388.6578238164404 -188.5722177537648, 387.8021650689898 -189.15884554482474, 387.8942912753758 -190.13725953871213 M390.0830306953614 -187.68698112800567 C388.88567606360255 -188.46630020621438, 388.0144156338578 -189.408728215412, 387.60246750871585 -189.9622999809293" stroke="#e64980" stroke-width="1" fill="none"></path><path d="M-0.2921988267451523 1.6704341847449538 C15.921740923449399 -24.36888417415321, 35.998367530231675 -125.98428152017294, 97.87853182367981 -156.9403391521424 C159.75869611712795 -187.89639678411186, 323.4384063980232 -179.7597610236456, 370.98878693394363 -184.06591160707177 C418.5391674698641 -188.37206219049793, 385.8506276032577 -198.84662981443108, 383.18081503920257 -182.77724265269936 C380.51100247514745 -166.70785549096763, 389.96556093109155 -107.65829528185229, 354.9699115496129 -87.64958863668144 C319.97426216813426 -67.6408819915106, 213.02844970834752 -84.92079502356549, 173.2069187503308 -62.72500278167426 C133.38538779231408 -40.52921053978304, 139.65341747018198 20.739703154439727, 116.0407258015126 45.525164814665914 C92.42803413284321 70.3106264748921, 50.72763462675114 93.57606790450711, 31.53076873831451 85.98776717968285 C12.333902849877877 78.39946645485858, 6.107151796544592 14.099371003980437, 0.8595304708927869 -0.004639534279704094 M-3.8953452605009082 0.10893036067485795 C11.812889825304348 -26.773576067090033, 32.89854810853799 -130.1142527625958, 95.16744013607502 -161.64719152271746 C157.43633216361204 -193.18013028283912, 321.78323007086914 -185.97624907632667, 369.7180069047213 -189.0887022000551 C417.6527837385734 -192.20115532378355, 385.7025033011039 -196.15481907983622, 382.7761011391878 -180.3219102650881 C379.8496989772717 -164.48900145033997, 387.9081972263257 -114.47502136687439, 352.1595939332247 -94.09124931156636 C316.4109906401237 -73.70747725625833, 207.4035996069511 -80.80670619785785, 168.28448138058187 -58.019277933239934 C129.16536315421263 -35.23184966862202, 140.72845653673014 18.563817833463347, 117.44488457500934 42.63332027614116 C94.16131261328856 66.70282271881898, 48.593972442746164 94.04878380000592, 28.58304961025715 86.39773672282696 C8.572126777768137 78.746689645648, 1.8294767520825062 10.953966441353163, -2.6206524199247365 -3.2729621869325642" stroke="#000000" stroke-width="2" fill="none"></path></g></g><g><g transform="translate(163.4540626642057 199.39463725413304) rotate(324.1541626669959 9.932662485204673 -46.732803690692805)" fill-rule="evenodd"><path d="M0.811520267277956 -3.105178225785494 L13.176238108426332 -16.15987752750516 L17.061635423451662 -26.296474564820528 L12.214172173291445 -40.8961949236691 L-11.109926056116821 -59.547295439988375 L-14.58412117883563 -74.86342357471585 L-9.78812510892749 -82.39377366378903 L-2.217665385454895 -104.72269629314542 L6.299499202519655 -115.8014854080975 L13.009828615933657 -117.0628802664578 L18.668571878224615 -109.62004004791379 L28.174532700330023 -92.45990322902799 L34.40991323068738 -45.33112703636288 L33.282306242734194 -18.59223197773099 L20.16317169740796 7.961005579680204 L14.352680493146181 14.863131534308195 L24.849245715886354 23.939951550215483 L17.01065545156598 22.771177541464567 L3.5736040361225605 19.69042767211795 L4.540410805493593 18.918038856238127 L-0.7233236543834209 -3.556120742112398" stroke="none" stroke-width="0" fill="#665500" fill-rule="evenodd"></path><path d="M0.9887869339436293 0.9340883929282424 C3.5391674698640903 -3.9970621904979144, 17.100627603257696 -17.179963147764404, 14.430815039202571 -29.02724265269935 C11.761002475147446 -40.874522157634296, -15.034439068908494 -55.15829528185229, -15.03008845038712 -70.14958863668144 C-15.025737831865747 -85.1408819915106, 5.9451163750141856 -124.71246169023216, 14.456918750330805 -118.97500278167426 C22.968721125647427 -113.23754387311637, 35.903417470181985 -57.80196351222693, 36.0407258015126 -35.724835185334086 C36.178034132843216 -13.647706858441236, 16.76930129341781 3.5760679045071218, 15.28076873831451 13.487767179682852 C13.792236183211207 23.399466454858583, 29.023818463211256 22.016037670647105, 27.109530470892786 23.745360465720296 C25.195242478574315 25.474683260793487, 8.421066473051905 27.61638735520343, 3.7950407844036818 23.863703950121998 C-0.8309849042445423 20.111020545040567, -0.01597697523732966 5.0170949855198455, -0.6466236609965561 1.2292600352317091 M-1.9189672297239304 -1.027146003842354 C1.6126336397727337 -5.55157453040282, 22.221320792635282 -13.319018702308336, 19.845248525738718 -25.548414066433907 C17.469176258842154 -37.77780943055948, -15.438445792396863 -59.02017812232176, -16.175400831103325 -74.40351818859577 C-16.912355869809787 -89.78685825486977, 7.318524072766303 -124.4961501644055, 15.423518293499946 -117.84845446407795 C23.52851251423359 -111.20075876375039, 32.010413981874784 -56.200014255642884, 32.454564493298534 -34.517343986630436 C32.898715004722284 -12.834673717617985, 18.64853252867858 3.067025176882746, 18.08842136204243 12.247567149996758 C17.528310195406277 21.428109123110772, 31.875646640261014 18.640638706088065, 29.093897493481634 20.56590785205364 C26.312148346702255 22.491176998019217, 5.630981577038765 27.45503857155641, 1.3979264813661576 23.799182025790216 C-2.8351286143064494 20.14332548002402, 3.6235542660951623 2.4829786795377737, 3.6955669194459926 -1.3692314225435256" stroke="#000000" stroke-width="2" fill="none"></path></g></g><g><g transform="translate(121.45561480260596 395.11868534366835) rotate(324.1541626669959 42.68898848550617 -23.02266861103564)"><path d="M-2.678620211407542 -1.2762248534709215 C4.7781781950344655 1.1146525086214147, 28.383952545995513 19.35668108277023, 43.45009810514748 16.935633574053647 C58.51624366429945 14.514586065337063, 84.16921306836107 -8.732643808797, 87.71825314350426 -15.802509905770421 C91.26729321864744 -22.87237600274384, 69.15903889325759 -17.116916896775365, 64.74433855600655 -25.48356300778687 C60.32963821875553 -33.850209118798375, 61.45447575636208 -58.80909797934194, 61.230051119998095 -66.00238657183945 M1.0627474603056912 4.202656415998936 C8.349250187178454 8.117451957762242, 27.340593561430772 22.468470491468906, 41.72785668462515 19.580023540556432 C56.11511980781953 16.691576589643958, 83.7024270289143 -5.8948872781793265, 87.38632619947195 -13.128025289475918 C91.0702253700296 -20.36116330077251, 68.77119500567517 -15.182547721167406, 63.8312517079711 -23.81880452722311 C58.89130841026704 -32.45506133327882, 58.50895152817169 -58.28911695728699, 57.74666641324758 -64.94556612581015" stroke="#000000" stroke-width="2" fill="none"></path></g></g><g><g transform="translate(114.91361606938403 383.92552463770886) rotate(324.1541626669959 43.31472504050436 -23.221858032999933)"><path d="M-1.5322679299861193 0.694751640036702 C5.396429103737076 3.237599825734893, 25.606644374256334 19.913923060769836, 40.456416211649774 16.916952546313404 C55.306188049043215 13.919982031856973, 83.19673308742543 -10.247136887038746, 87.56636309437454 -17.287071446701884 C91.93599310132365 -24.32700600636502, 71.06365908595423 -17.195595236743493, 66.67419625334442 -25.322654811665416 C62.28473342073461 -33.44971438658734, 62.238993821665645 -59.33756771100064, 61.229586098715664 -66.04942889623344 M2.831405265927315 -1.3964084225893023 C10.743123017748196 1.3128563898801802, 31.695603810747464 21.888215257525445, 45.749033191800116 19.55120138347149 C59.80246257285277 17.214187509417535, 83.64202934404214 -8.231533741752306, 87.15198155224323 -15.418491666913033 C90.66193376044431 -22.60544959207376, 71.70975187440713 -15.303937159975371, 66.80874644100666 -23.570546167492868 C61.90774100760619 -31.837155175010366, 58.27935082892577 -57.66447025756041, 57.745948951840404 -65.01814571201801" stroke="#000000" stroke-width="2" fill="none"></path></g></g><g><g transform="translate(146.9844718093135 347.4428487403703) rotate(324.1541626669959 0.4196299153566656 18.163453333166245)"><path d="M-2.0532030839473006 -1.3660652201622723 C-0.4638767777631678 2.6290605941166487, 5.0392431558420245 17.664708983773988, 8.665757546946406 24.13254864998162 C12.292271938050787 30.60038831618925, 21.175689087435604 36.09627293733259, 19.70588326267898 37.440972777083516 C18.236077437922358 38.78567261683444, 5.265957981472214 34.866056978578364, -0.1530774015933276 32.20074768848717 C-5.572112784658868 29.53543839839597, -9.621920376891891 24.256487051521738, -12.80832903571427 21.449117036536336 C-15.994737694536648 18.641747021550934, -18.055202660833796 16.820692225173115, -19.271529354527594 15.356527598574758 M2.02767674267292 4.064045564532281 C3.2019844196240106 8.561586337288222, 1.871137169003486 23.22061830063661, 5.703445537686347 27.969549657702444 C9.535753906369209 32.71848101476828, 25.914323363105456 31.671393796801567, 25.02152695477009 32.5576337069273 C24.12873054643472 33.44387361705303, 7.258298741777738 34.85356435318788, 0.3466670876741409 33.28698911845684 C-6.564964566429456 31.7204138837258, -12.360107267896336 26.41040470937888, -16.448262969851495 23.15818229854107 C-20.536418671806654 19.90595988770326, -23.815940238833427 14.710397938291234, -24.182267124056818 13.773654653429986" stroke="#000000" stroke-width="2" fill="none"></path></g></g><g><g transform="translate(326.2559452088881 32.10303810440951) rotate(324.1541626669959 12.360929493270817 -10.541082457754015)"><path d="M1.223685334250331 -0.28523040227592 C1.5370172760138912 -2.397402866805593, 2.0202870509276787 -10.040431336686016, 4.543251739069819 -13.645303360745311 C7.06621642721196 -17.250175384804606, 12.738946829363702 -24.405933117990692, 16.361473463103174 -21.914462546631693 C19.984000096842646 -19.422991975272694, 25.15246147128443 -2.2823196293165284, 26.27841154150665 1.303520067408681 M-1.5565525549650192 -2.908380716443062 C-1.6723504688342412 -5.654481097658476, 0.7192715595165886 -14.532550574739775, 3.414436576962471 -17.24199344456196 C6.109601594408353 -19.951436314384143, 11.91787340303262 -21.481295545697215, 14.614437549710274 -19.16503793537617 C17.311001696387926 -16.848780325055124, 17.372713649868967 -6.70274050851663, 19.59382145702839 -3.344447782635689" stroke="#000000" stroke-width="2" fill="none"></path></g></g><g><g transform="translate(222.24509762536104 160.50076256398347) rotate(356.35285897337025 90.27919015730282 -65.84138946810899)" fill-rule="evenodd"><path d="M0.16402892416407155 -40.932814625419056 C0.16402892416407155 -40.932814625419056, 0.16402892416407155 -40.932814625419056, 0.16402892416407155 -40.932814625419056 M0.16402892416407155 -40.932814625419056 C0.16402892416407155 -40.932814625419056, 0.16402892416407155 -40.932814625419056, 0.16402892416407155 -40.932814625419056 M7.529331922391561 -32.452392440823076 C17.30715861053588 -42.184024937114216, 26.157282100946787 -55.11960438086432, 27.72928901505461 -60.62700183747965 M4.207255555177239 -36.40071424336469 C13.846255522392479 -42.52580627493391, 19.953364697128237 -50.28803397213355, 30.11774835292986 -63.30630326143164 M11.0035814735289 -30.393012725798123 C24.7307224518416 -43.15959902144557, 41.03057144954641 -65.11034100751232, 57.941685902211 -84.380896501152 M11.843705259188571 -28.7777551478275 C30.23678569865132 -48.696847631633645, 48.45855529852512 -72.28033288949283, 55.40739780690067 -81.0015452261103 M16.744665519845654 -24.585618224251572 C41.15909186598589 -45.59964319642958, 61.860472375191 -68.7481819136666, 84.0690417432248 -105.15112951321301 M17.15320703345256 -23.878214905295078 C31.771712491444788 -41.61206118298685, 52.503944062618814 -62.82710358358585, 83.29282095777089 -102.10466415917274 M21.09290036151034 -18.382279463816467 C41.02489834886173 -40.991920487992054, 61.005331346139805 -65.98613884567425, 110.80752353028353 -122.2608209908502 M23.43866262735647 -18.09194480511922 C58.3227325572388 -59.19381655085912, 93.80438101554238 -98.2265323557844, 115.46206712194677 -122.78710781452524 M27.71358493272944 -9.37794740123476 C50.51497447794131 -46.26047166869776, 86.40747653691976 -75.98365304532008, 142.39722186062212 -139.3962619001372 M29.685378299325542 -12.940348440760626 C52.34050174762156 -39.03111435486639, 76.9180076727111 -64.8927966291538, 137.19203109588202 -139.15966666996016 M34.72047303367147 -3.323130064139498 C76.01381826568714 -56.868472125776734, 114.0669082641524 -103.02653970152981, 143.96838355964647 -134.67068951313775 M33.87203704874703 -6.176558351571096 C75.85332385444855 -56.23738788573564, 113.19404640209123 -102.16904803019085, 144.88218577920125 -136.52374938426 M39.302301098542905 -3.961215909272635 C82.57270815738181 -45.90633881551492, 120.42287135251232 -95.01807269898097, 148.02842565228772 -127.81953886305422 M39.784726384046174 -0.8102593810113312 C62.02428160499447 -32.6957351320887, 88.45553484173482 -59.53829547925952, 152.7290961460544 -129.75413425234586 M48.84626042751228 5.058849535732783 C76.35136328963802 -41.58148836203133, 117.00456179126152 -82.62248574876715, 159.1325081887144 -127.47222422751963 M44.32791055461024 3.7921346815668713 C68.6805392474259 -19.709986862492855, 93.25317671982384 -47.68533618761247, 159.5844920708287 -125.75825068856955 M46.34787563589048 14.647045696585291 C76.20288994536634 -22.126874617664726, 107.46885023002007 -55.634423357071796, 165.53577385313298 -122.87604031327594 M45.121808999968884 19.184463125153297 C72.74151603823262 -11.750346090791837, 102.8007179493058 -44.62391955994769, 164.7950079369494 -120.38758041139174 M67.39496308933343 -0.9983277863778355 C107.62646726834214 -45.059766169312134, 149.10445992957312 -88.92471642745221, 169.004702137731 -116.29941973751062 M69.67385478499676 -0.6172864216335299 C94.90272535239676 -29.29296521649449, 121.49756357943792 -58.26043804471702, 168.20103681082276 -114.02841492471867 M99.1686550044463 -16.719732000542145 C129.54955186880503 -54.26272293827836, 159.04013308810926 -86.24479344185221, 174.03605031368642 -106.15222344763399 M96.5672187005178 -18.651558932897906 C123.9762991958433 -47.78562602323978, 152.16490306124686 -79.90829830538713, 175.54317141284554 -107.90964593767941 M124.7908996234166 -40.95356831309511 C145.55196486809638 -61.5899634804299, 162.19588883050713 -87.30050844869405, 180.41973537318677 -105.35132156083353 M123.99580943793828 -36.75191153754606 C145.25345935866363 -62.73802003535232, 166.93903507156128 -86.36530080660611, 181.21258605942398 -101.6558462041802 M38.61697988618746 13.49786365146171 C38.61697988618746 13.49786365146171, 38.61697988618746 13.49786365146171, 38.61697988618746 13.49786365146171 M38.61697988618746 13.49786365146171 C38.61697988618746 13.49786365146171, 38.61697988618746 13.49786365146171, 38.61697988618746 13.49786365146171 M45.527464439350254 8.99676971550498 C44.82591085798528 8.594421474936222, 44.811774103840925 7.826249169602618, 43.90813344371107 7.730455025615551 M45.19147199709255 8.705589493954815 C45.01992540732278 8.628274609817142, 44.633006460885355 8.2729549255615, 43.76876124524114 7.295062683293976 M55.39390839304767 6.811898986664378 C31.74782598044024 -9.167063703936996, 17.541208997262075 -26.434418107507014, 3.900382442019353 -44.00321769482534 M53.843833888359285 3.165483173769676 C31.95670156807079 -15.812518105839233, 11.75558851926543 -31.096218755831742, 0.7114822227428057 -39.405702393046425 M62.46554707221384 2.9816213600852066 C35.38522249950357 -16.808215674119644, 17.412014052627185 -37.08941341104221, 7.5782337371523205 -45.34430998815256 M60.14905715033109 -0.3033978420726484 C45.82121377826063 -14.139368135013836, 28.426846675993303 -24.402717673630853, 5.298346491184336 -45.781560108717855 M66.73376091617493 -4.968876450820144 C46.18187066526993 -17.238385803919346, 32.037356508641736 -30.899013696539093, 16.42128812676771 -53.16682852049345 M67.30866006623356 -6.012003970830019 C49.19107088557238 -19.512432124224073, 31.903431746543475 -38.59576377677714, 13.955471761212781 -52.588610222460574 M73.14081066711844 -9.171308313239166 C55.70040269895206 -22.406250425036326, 34.827392688948514 -40.26226811584963, 21.289775103053024 -53.33295590903552 M73.29389507747294 -11.633736091408679 C55.220826012277776 -27.821286771800146, 35.457215179218295 -41.296240246719655, 22.226376099234393 -54.66626923818083 M78.82817581723188 -17.269106844359357 C56.7082331136167 -34.034608120872704, 37.98527436236761 -45.10073858541021, 30.118142908195765 -58.09159352096626 M77.25765525045549 -15.867385707714874 C66.50549739751065 -22.831495975543014, 57.26649465484026 -32.77003554988521, 27.398718196655423 -59.441844284784885 M87.01155460870275 -20.292423411368226 C70.42899822946899 -28.446395397521577, 57.180861797870946 -42.879592785425785, 37.79005853438342 -61.95336147347318 M85.59697427658746 -19.499634948654865 C75.16975966944746 -29.407656294943465, 62.85667545686236 -39.79983712182312, 32.56679736988211 -65.99303311617898 M92.85586403371852 -20.53312813145326 C79.75192927862888 -30.684648412929334, 70.55988209843768 -45.503065117330806, 40.013407723803496 -73.56559863374376 M92.01552647227507 -24.46755656813489 C72.71870478251661 -41.59229988537801, 53.75499423126718 -56.725131423085244, 40.69405356032071 -70.11042411126935 M97.35023983446673 -31.419809871801974 C88.14366230520908 -40.70462119858742, 72.5492891991252 -54.65122154123422, 50.44058538842073 -72.24342164795603 M99.58612677892462 -30.921113945061208 C80.29022834945997 -43.65977031125024, 66.26146386892066 -58.30673020618462, 45.92085775415471 -76.01605530295278 M109.18303650313486 -33.39277624960185 C89.33309989686458 -45.27295522861625, 74.87607865500729 -65.73526187111284, 53.56233393086815 -77.22048882531645 M104.81323076294233 -32.28566108334006 C96.04966936502719 -41.45717819934834, 84.23546829764064 -53.4134671741309, 54.64585030323589 -78.80167826215448 M110.6168272819104 -37.779053632040394 C101.55980512070066 -47.80424487306189, 87.77473831642396 -62.63896339941728, 58.054485763110485 -83.46035431200305 M111.69543461573444 -40.32444261187769 C94.23383398125429 -54.99396167720217, 72.94369730353598 -74.912929208063, 61.060183443747725 -83.42761227177122 M123.36340416298088 -42.66738713630513 C104.25612868635008 -56.2074439840819, 90.67710949580072 -72.1598195995965, 65.67180162733527 -90.90723197520332 M119.78797515370724 -44.20109378458039 C98.8453465247242 -59.08811582173001, 80.84770967287665 -76.34088000756314, 68.2288596170965 -87.16100821070926 M126.45877788853377 -48.78324062958352 C110.95003564982252 -64.46234407499156, 95.05752993737211 -81.12561902192596, 72.36826101572994 -93.01705443210476 M126.26522981826693 -47.54214048035435 C104.71677410784781 -64.22304227448572, 84.67789918529209 -82.03106722405195, 75.39852188968841 -95.29440758287483 M130.13817795075659 -55.36379672906309 C117.70026016315201 -66.2088928079036, 94.28806053835837 -85.08934270840658, 82.17206217048205 -100.63247304989488 M133.9832166758198 -51.49949920310586 C115.46832536772675 -67.83399202837037, 95.74447315812225 -84.63022690703967, 80.05995395292975 -98.2082425171742 M141.7110525918368 -60.03295680193133 C125.96339982610738 -65.39676314099601, 116.906421103121 -77.93741984675731, 85.06062208377908 -105.85785794576115 M141.54209441777203 -55.81297708174116 C119.70546004533061 -74.91840738791039, 99.80977003081048 -91.63835876208003, 86.01058012322675 -102.43333576751358 M143.43606880396197 -62.67634096537574 C131.68120931114586 -75.232913711637, 113.1233559396456 -93.9428670807994, 94.83557649780855 -105.93429798689112 M147.34866236053 -61.8727718701665 C133.48540344791095 -71.21640444744178, 124.21025126344922 -80.37224950609543, 93.41696534198567 -107.71340071279928 M154.39611232931955 -65.31628808658382 C129.80036174264953 -85.10154715407519, 111.71077077546616 -101.16211249312425, 102.24307032453514 -115.77065981946275 M151.67886044549985 -65.78197194728813 C136.88778451752083 -82.17375711905652, 118.14067236386461 -98.64181578607554, 98.12260559538997 -114.72360038592801 M158.86386849965152 -69.2989738407241 C142.79210615338474 -86.64174254257807, 121.10426591256538 -102.30026449516573, 107.86759596659194 -117.19435175268256 M159.23085007864233 -74.73117437499332 C139.38064326919206 -90.2597937640287, 119.6590517010163 -103.36176092229873, 104.72926623529146 -119.50881135782504 M165.45978929781364 -78.57699750801252 C144.12723893670443 -90.73114909680707, 130.48109184137596 -112.20994046485396, 111.47873583594365 -122.76267793272854 M166.47048119203197 -79.46857169521677 C147.7768701045943 -92.62838063573383, 130.99478332470244 -105.1033585726214, 114.13122449787362 -124.4824779113871 M170.9894167159935 -84.83285420563664 C154.9472204114067 -99.68464643360127, 138.26439304837578 -115.46351776054145, 120.17029109455504 -125.66966125577869 M171.6561156020751 -82.61092416186477 C157.7437615815263 -95.42666528840267, 144.33875187856842 -108.34213418847969, 119.84189824431994 -129.52093495451095 M172.8089635952647 -92.66605294573641 C159.30288211475082 -110.16909695648216, 136.74214762985218 -123.88524406909562, 127.74470081483632 -134.30892531003 M175.391707849064 -89.01817779879606 C165.70537310473185 -101.9312760291623, 152.58152791829147 -107.82177145858745, 125.56576512125939 -133.71378996211232 M181.26624774870578 -98.28329022953739 C165.6953543521202 -109.98116152802196, 150.15614715019325 -127.46690371842226, 132.8144940785295 -143.42898952065102 M179.25523932029608 -99.67113799395491 C162.0954751708395 -114.26895212506265, 142.9471748648593 -129.15939447301298, 131.48731465965272 -139.70671812107852" stroke="#868e96" stroke-width="1" fill="none"></path><path d="M1.2046402554959057 -41.95434789031771 C20.311710154106123 -55.69322315232985, 91.85376397050698 -107.01853094337696, 113.50967479140998 -123.49197123658716 C135.16558561231298 -139.96541152979736, 125.9139134526545 -137.90769718490475, 131.1401051809139 -140.79498964957892 C136.36629690917331 -143.6822821142531, 137.4422864876112 -147.0954129400611, 144.86682516096647 -140.81572602463223 C152.29136383432174 -134.53603910920336, 170.65592785092383 -111.3194349721587, 175.68733722104557 -103.1168681570057 C180.7187465911673 -94.91430134185269, 178.83814431218647 -97.10490296405021, 175.05528138169691 -91.60032513371418 C171.27241845120736 -86.09574730337815, 174.70352332047918 -86.33680108083084, 152.9901596381082 -70.08940117498946 C131.2767959557372 -53.842001269148085, 63.314637102553874 -6.420833730771507, 44.775099287470944 5.884074301334099 C26.235561472388017 18.188982333439704, 49.584906886412895 11.46544942855407, 41.75293274761064 3.74004701764418 C33.92095860880839 -3.985355393265709, 4.573159322975947 -33.25919022172541, -2.2167455453425644 -40.46834016412524 M-1.5859363907575608 -36.439639191404254 C17.280855097735827 -49.777649202987874, 89.49753245358447 -103.57675097669974, 111.45328004279675 -120.52288154621482 C133.409027632009 -137.4690121157299, 124.31468492915671 -134.93442161291773, 130.1485491445161 -138.11642260849476 C135.98241335987547 -141.2984236040718, 138.21408854034252 -144.37185888007383, 146.45646533495304 -139.61488751967704 C154.69884212956356 -134.85791615928025, 174.26729082961566 -117.21709053757453, 179.60280991217917 -109.5745944461141 C184.93832899474268 -101.93209835465368, 182.86634612516406 -101.0818553893662, 178.46957983033403 -93.75991097091446 C174.072813535504 -86.43796655246273, 175.9530008929948 -81.92489817997112, 153.22221214319902 -65.6429279354037 C130.49142339340324 -49.36095769083629, 60.012897835120185 -7.26367868875401, 42.08484733155942 3.931910496490077 C24.156796827998665 15.127499681734164, 52.93594011313637 9.083669930617702, 45.653909121834474 1.5306071760608093 C38.37187813053258 -6.022455578496084, 5.61501443655677 -35.04433589515438, -1.6073386162519454 -41.38646603085128" stroke="#000000" stroke-width="2" fill="none"></path></g></g><g transform="translate(66.20902202281229 240.89201624542085) rotate(316.0150717434316 73.95382646760237 19.66857086904318)"><text x="0" y="27.33714173808636" font-family="Virgil, Segoe UI Emoji" font-size="31.46971339046909px" fill="#fff" text-anchor="start" style="white-space: pre;" direction="ltr">SexPistol</text></g></svg>